<?xml version="1.0" encoding="utf-8"?>
<!-- Generator: Adobe Illustrator 25.4.1, SVG Export Plug-In . SVG Version: 6.00 Build 0)  -->
<svg version="1.1" id="Calque_1" xmlns="http://www.w3.org/2000/svg" xmlns:xlink="http://www.w3.org/1999/xlink" x="0px" y="0px"
	 viewBox="0 0 97 45" style="enable-background:new 0 0 97 45;" xml:space="preserve">
<style type="text/css">
	.st0{fill:#0065FC;}
</style>
<path class="st0" d="M17.6,30.3c-0.2-0.9-0.4-1.7-0.7-2.4c-0.2-0.7-0.4-1.3-0.5-1.8c-0.9,0.4-1.8,0.6-2.8,0.8c0,1.8,0,3.4,0.1,4.7
	c0,0.8,0,1.5,0.1,2.1c0,0.5,0.1,1,0.1,1.4c0,0.4,0.1,0.8,0.1,1.1c0,0.3,0.1,0.7,0.2,1c-0.4,0.4-0.9,0.7-1.3,0.9
	c-0.4,0.2-0.7,0.3-1.1,0.4c-0.4,0.1-0.7,0.1-1,0.1c-0.1-0.4-0.2-0.8-0.3-1.3c-0.1-0.4-0.2-1-0.2-1.8c0-0.7,0-1.7,0-2.9
	s0-2.7,0.1-4.5c0-0.2,0-0.4,0-0.6c0-0.2,0-0.4,0-0.6c-0.2,0-0.4-0.1-0.6-0.1c-0.2,0-0.4-0.1-0.6-0.1C9.2,26.4,9.1,26,9,25.6
	C9,25.2,9,24.9,9,24.7C9,24.4,9,24.2,9,24c0.4,0.1,0.7,0.1,1.1,0.1h0.5c0-1.2,0.1-2.4,0.1-3.6c0-1.3,0.1-2.5,0.1-3.6
	c0-1.2,0.1-2.3,0.1-3.4c0-1.1,0-2.1,0.1-3c-0.7,0.6-1.2,1.3-1.7,2.2c-0.5,0.9-0.8,2-1,3.2c-0.3-0.1-0.5-0.2-0.7-0.5
	c-0.2-0.3-0.4-0.6-0.5-0.9c-0.2-0.4-0.3-0.8-0.4-1.2c-0.1-0.5-0.1-1.1,0-1.6C6.8,11,6.9,10.5,7.2,10c0.2-0.5,0.5-1,0.8-1.3
	c0.3-0.4,0.6-0.7,0.8-0.9c0.5-0.4,0.9-0.7,1.4-1c0.5-0.3,1.1-0.6,1.7-0.8c0.2-0.3,0.5-0.6,0.8-0.9c0.3-0.3,0.6-0.4,0.9-0.5
	c0.4-0.1,0.6,0.2,0.6,0.9c0.2,0,0.4,0,0.6,0c0.2,0,0.5,0,0.7,0c0.8,0,1.7,0.2,2.6,0.5c0.9,0.3,1.7,0.9,2.5,1.7
	c0.8,0.7,1.4,1.7,1.9,3c0.5,1.2,0.7,2.7,0.7,4.4c0,2-0.4,3.8-1.1,5.5c-0.7,1.7-1.7,3-3,4.1c0.2,0.5,0.4,1.2,0.6,1.9
	c0.2,0.8,0.5,1.6,0.7,2.6c0.4,1.2,0.7,2.3,1.1,3.4c0.4,1,0.8,1.9,1.3,2.7c0.4,0.8,0.9,1.4,1.4,1.8c0.5,0.5,1,0.8,1.5,0.9
	c-0.3,0.6-0.6,1-1,1.2c-0.4,0.2-0.7,0.4-1.1,0.4c-0.4,0.1-0.9,0.1-1.3,0c-0.6-0.2-1.2-0.6-1.7-1.2c-0.5-0.6-0.9-1.4-1.2-2.3
	c-0.3-0.9-0.6-1.8-0.9-2.8C18.1,32.2,17.9,31.3,17.6,30.3z M13.8,12c0,0.6,0,1.4,0,2.3c0,0.9,0,1.8-0.1,2.9c0,1,0,2.1,0,3.3
	c0,1.1,0,2.2,0,3.3c0.6-0.1,1.2-0.3,1.9-0.6c0.7-0.3,1.4-0.7,2-1.3c0.6-0.6,1.1-1.4,1.6-2.4c0.4-1,0.6-2.3,0.6-3.9
	c0-1.2-0.2-2.2-0.5-3c-0.3-0.9-0.7-1.5-1.2-2.1C17.6,10,17,9.7,16.4,9.4C15.8,9.2,15.2,9,14.6,9c-0.1,0-0.2,0-0.3,0
	c-0.1,0-0.2,0-0.4,0C13.8,10,13.8,11,13.8,12z M29.4,35.2c-1.5,0-2.7-0.7-3.6-2c-0.8-1.3-1.3-3.1-1.3-5.3c0-1.5,0.2-2.9,0.5-4.3
	c0.4-1.3,0.8-2.5,1.4-3.5c0.6-1,1.2-1.7,2-2.3c0.8-0.6,1.6-0.9,2.4-0.9c0.8,0,1.5,0.4,2.1,1.2c0.6,0.7,0.9,1.8,0.9,3.2
	c0,0.9-0.2,1.8-0.5,2.7c-0.3,0.9-0.7,1.7-1.2,2.4c-0.5,0.7-1,1.2-1.6,1.7c-0.6,0.4-1.2,0.6-1.7,0.6c-0.4,0-0.6-0.1-0.9-0.2
	c-0.2-0.1-0.5-0.3-0.7-0.5c0.1,1.6,0.3,2.8,0.8,3.4c0.5,0.6,1.1,0.9,1.9,0.9c0.5,0,1-0.1,1.4-0.4c0.4-0.3,0.8-0.6,1.1-1
	c0.3-0.4,0.5-0.7,0.7-1.1c0.2-0.4,0.3-0.7,0.4-0.9c0.1-0.2,0.2-0.3,0.3-0.3c0.2,0,0.3,0.2,0.3,0.5c0,0.3-0.1,0.8-0.3,1.5
	c-0.2,0.6-0.4,1.3-0.8,1.9c-0.4,0.6-0.9,1.2-1.5,1.7C30.9,35,30.2,35.2,29.4,35.2z M30.9,18.9c-0.1,0-0.4,0.2-0.8,0.6
	c-0.4,0.3-0.7,0.9-1.2,1.5c-0.4,0.7-0.8,1.5-1.1,2.5c-0.3,0.9-0.5,2-0.6,3.2c1.3-0.4,2.4-1,3.1-1.9c0.8-0.9,1.2-2.1,1.2-3.8
	c0-0.8-0.1-1.4-0.2-1.7C31.1,19.1,31,18.9,30.9,18.9z M41.1,26.6c0.5,0.2,0.9,0.4,1.4,0.6c0.4,0.2,0.8,0.4,1.2,0.7
	c0.3,0.3,0.6,0.6,0.8,1c0.2,0.4,0.3,0.8,0.3,1.4c0,0.7-0.1,1.3-0.4,1.9c-0.2,0.6-0.6,1.1-1,1.6c-0.4,0.5-1,0.8-1.6,1.1
	c-0.6,0.3-1.3,0.4-2.1,0.4c-0.9,0-1.6-0.1-2.1-0.3c-0.5-0.2-0.9-0.4-1.2-0.7c-0.3-0.3-0.5-0.6-0.6-0.9c-0.1-0.3-0.1-0.5-0.1-0.7
	c0-0.3,0.1-0.7,0.2-1.1c0.1-0.4,0.3-0.9,0.6-1.4c0.1-0.2,0.3-0.4,0.4-0.6c0.3-0.3,0.6-0.6,0.9-0.6c0,0.7,0,1.2,0.2,1.6
	c0.2,0.4,0.4,0.7,0.7,0.9c0.3,0.2,0.6,0.4,0.9,0.5c0.4,0.1,0.7,0.1,1,0.1s0.6-0.1,0.9-0.2c0.3-0.1,0.6-0.3,0.9-0.4
	c0.3-0.2,0.5-0.4,0.6-0.6c0.2-0.3,0.3-0.5,0.3-0.8c0-0.3-0.1-0.6-0.3-0.8c-0.2-0.2-0.5-0.4-0.8-0.5c-0.3-0.1-0.6-0.2-1-0.3
	c-0.3-0.1-0.6-0.2-1-0.3c-0.3-0.1-0.7-0.2-1.3-0.3c-0.5-0.2-1-0.4-1.5-0.8c-0.5-0.3-0.9-0.8-1.3-1.4c-0.4-0.6-0.5-1.3-0.5-2.3
	c0-1.1,0.2-2,0.6-2.8c0.4-0.8,1-1.5,1.6-2.1c0.6-0.6,1.3-1,2-1.3s1.3-0.4,1.9-0.4c0.3,0,0.6,0.1,0.9,0.2c0.3,0.1,0.6,0.3,0.9,0.5
	c0.3,0.2,0.5,0.5,0.7,0.9c0.2,0.4,0.3,0.9,0.3,1.5c0,0.6,0,1.1-0.1,1.5c-0.1,0.4-0.2,0.7-0.3,0.9c-0.1,0.2-0.3,0.3-0.5,0.4
	c-0.2,0.1-0.4,0.1-0.7,0.1c-0.2,0-0.3,0-0.5-0.1c-0.1-0.1-0.3-0.1-0.4-0.2c-0.2-0.1-0.3-0.2-0.4-0.3c0.2-0.3,0.4-0.7,0.5-1
	c0.1-0.3,0.2-0.7,0.2-1.2c0-0.4-0.1-0.8-0.3-1.1c-0.2-0.3-0.4-0.5-0.8-0.5c-0.4,0-0.8,0.1-1.2,0.3c-0.4,0.2-0.7,0.5-1,0.8
	c-0.3,0.3-0.5,0.7-0.7,1.2c-0.2,0.4-0.2,0.9-0.2,1.4c0,0.8,0.2,1.5,0.7,2.2C39.5,25.5,40.2,26.1,41.1,26.6z M51.1,35.2
	c-1.5,0-2.7-0.7-3.6-2c-0.8-1.3-1.3-3.1-1.3-5.3c0-1.5,0.2-2.9,0.5-4.3c0.4-1.3,0.8-2.5,1.4-3.5c0.6-1,1.2-1.7,2-2.3
	c0.8-0.6,1.6-0.9,2.4-0.9c0.8,0,1.5,0.4,2.1,1.2c0.6,0.7,0.9,1.8,0.9,3.2c0,0.9-0.2,1.8-0.5,2.7c-0.3,0.9-0.7,1.7-1.2,2.4
	c-0.5,0.7-1,1.2-1.6,1.7c-0.6,0.4-1.2,0.6-1.7,0.6c-0.4,0-0.6-0.1-0.9-0.2c-0.2-0.1-0.5-0.3-0.7-0.5c0.1,1.6,0.3,2.8,0.8,3.4
	c0.5,0.6,1.1,0.9,1.9,0.9c0.5,0,1-0.1,1.4-0.4c0.4-0.3,0.8-0.6,1.1-1c0.3-0.4,0.5-0.7,0.7-1.1c0.2-0.4,0.3-0.7,0.4-0.9
	c0.1-0.2,0.2-0.3,0.3-0.3c0.2,0,0.3,0.2,0.3,0.5c0,0.3-0.1,0.8-0.3,1.5c-0.2,0.6-0.4,1.3-0.8,1.9c-0.4,0.6-0.9,1.2-1.5,1.7
	C52.7,35,51.9,35.2,51.1,35.2z M52.6,18.9c-0.1,0-0.4,0.2-0.8,0.6c-0.4,0.3-0.7,0.9-1.2,1.5c-0.4,0.7-0.8,1.5-1.1,2.5
	c-0.3,0.9-0.5,2-0.6,3.2c1.3-0.4,2.4-1,3.1-1.9s1.2-2.1,1.2-3.8c0-0.8-0.1-1.4-0.2-1.7C52.9,19.1,52.7,18.9,52.6,18.9z M66.6,21.6
	c0,0.4-0.1,0.8-0.3,1.2c-0.2,0.4-0.4,0.8-0.6,1.2c-0.2,0.4-0.5,0.7-0.8,1c-0.3,0.3-0.6,0.4-0.8,0.5c0.2-0.9,0.2-1.6,0.2-2.1
	c-0.1-0.5-0.2-0.8-0.3-1.1c-0.2-0.3-0.4-0.4-0.7-0.4c-0.4,0-0.8,0.3-1.2,0.9c-0.4,0.6-0.7,1.3-0.9,2.1c-0.3,0.8-0.5,1.7-0.6,2.7
	c-0.2,0.9-0.2,1.8-0.2,2.6c0,0.5,0,1.1,0,1.6c0,0.4,0.1,0.9,0.1,1.3c0.1,0.5,0.2,0.8,0.3,1.1c-0.1,0.1-0.4,0.3-0.7,0.5
	c-0.3,0.2-0.6,0.3-0.9,0.4c-0.3,0.1-0.6,0-0.9-0.2c-0.2-0.2-0.4-0.6-0.4-1.3c0-0.6-0.1-1.3-0.1-2.1c0-0.8,0-1.6,0-2.4
	c0-0.8,0-1.6,0.1-2.4c0-0.8,0.1-1.5,0.1-2.1c0-1.3,0.1-2.2,0.1-2.9c0-0.7,0-1.3,0-2c0-0.1,0.1-0.3,0.4-0.5c0.3-0.2,0.6-0.4,1-0.6
	c0.4-0.2,0.7-0.3,1-0.3c0.3,0,0.5,0.1,0.5,0.3c0,0.3,0,0.9-0.1,1.9c0,0.9-0.1,1.9-0.2,2.9c0.2-0.5,0.4-1.1,0.6-1.8
	c0.3-0.6,0.6-1.2,0.9-1.8c0.3-0.5,0.7-1,1.1-1.3c0.4-0.4,0.9-0.6,1.4-0.6c0.4,0,0.7,0.2,1,0.5c0.3,0.3,0.5,0.7,0.6,1.1
	c0.2,0.4,0.3,0.8,0.3,1.2C66.6,21.1,66.6,21.4,66.6,21.6z M71.9,32.5c0.2,0,0.5-0.5,0.8-1.4c0.3-0.9,0.6-2,0.9-3.3
	c0.3-1.3,0.6-2.6,0.7-4c0.2-1.4,0.3-2.5,0.2-3.5c0-0.3-0.1-0.6-0.2-0.8c-0.1-0.2-0.2-0.4-0.3-0.6c0.1-0.2,0.3-0.4,0.5-0.5
	c0.2-0.1,0.4-0.2,0.6-0.3c0.2-0.1,0.4-0.1,0.7-0.2c0.5,0,0.9,0.1,1.2,0.3c0.1,0.2,0.2,0.6,0.2,1.2c0,0.6-0.1,1.4-0.2,2.2
	c-0.1,0.8-0.2,1.7-0.4,2.7c-0.2,0.9-0.3,1.8-0.5,2.5c-0.2,0.7-0.4,1.6-0.7,2.4c-0.3,0.9-0.6,1.7-0.9,2.5c-0.3,0.8-0.6,1.4-0.9,2
	c-0.3,0.5-0.6,0.9-0.8,1c-0.5,0.2-0.9,0.3-1.4,0.3c-0.4,0-0.7-0.1-0.8-0.2c0-0.1-0.1-0.3-0.3-0.6c-0.2-0.3-0.3-0.8-0.5-1.3
	c-0.2-0.5-0.4-1.2-0.6-1.9c-0.2-0.7-0.4-1.5-0.5-2.4c-0.2-0.8-0.3-1.7-0.3-2.7c-0.1-1-0.1-1.9-0.2-2.8c-0.1-0.9-0.2-1.8-0.3-2.6
	c-0.1-0.8-0.3-1.5-0.6-2l1.6-0.8c0.1-0.1,0.3-0.2,0.5-0.2c0.2-0.1,0.4-0.1,0.5-0.1c0.2,0,0.3,0.1,0.5,0.3c0.2,0.2,0.3,0.5,0.3,0.9
	c0,0.5,0.1,1.1,0.1,1.8c0,0.7,0.1,1.5,0.1,2.2c0,0.8,0.1,1.5,0.1,2.3c0,0.7,0.1,1.4,0.1,2c0,0.6,0.1,1.3,0.2,1.9
	c0.1,0.6,0.2,1.2,0.3,1.7c0.1,0.5,0.2,0.9,0.3,1.2C71.7,32.4,71.8,32.5,71.9,32.5z M79.1,19.6c0-0.2,0.2-0.4,0.5-0.6
	c0.4-0.2,0.7-0.4,1.2-0.5c0.4-0.1,0.8-0.2,1.2-0.2c0.4,0,0.6,0.1,0.6,0.3c0,0.4,0,1-0.1,1.8c0,0.8-0.1,1.6-0.2,2.5
	c-0.1,0.9-0.1,1.7-0.2,2.6c-0.1,0.9-0.1,1.6-0.1,2.2c0,0.6-0.1,1.3-0.1,2.1c0,0.6-0.1,1.3-0.1,2.1c0,0.8,0,1.6,0,2.4
	c0,0.1-0.1,0.3-0.3,0.4c-0.2,0.1-0.5,0.2-0.7,0.3c-0.3,0.1-0.5,0.1-0.8,0.1c-0.2,0-0.4-0.1-0.4-0.2c0-0.1-0.1-0.3-0.1-0.6
	c0-0.3-0.1-0.7-0.1-1.2c0-0.5-0.1-1.2-0.1-2.1c0-0.9,0-1.9,0-3.1c0.1-2.4,0.1-4.2,0-5.5C79.1,21.2,79.1,20.2,79.1,19.6z M81.4,11
	c0.4,0,0.9,0.2,1.3,0.5c0.4,0.3,0.6,0.8,0.6,1.4c0,0.4-0.1,0.8-0.3,1.2c-0.2,0.4-0.4,0.8-0.6,1.1c-0.2,0.3-0.5,0.6-0.8,0.8
	c-0.3,0.2-0.6,0.3-0.9,0.3c-0.4,0-0.6-0.1-0.9-0.2c-0.2-0.2-0.4-0.4-0.5-0.6c-0.1-0.2-0.2-0.5-0.2-0.7c0-0.3-0.1-0.5-0.1-0.7
	c0-0.3,0-0.6,0.1-0.9c0.1-0.4,0.2-0.7,0.4-1c0.2-0.3,0.4-0.6,0.7-0.8C80.5,11.1,80.9,11,81.4,11z M80.6,15c0.1,0,0.3-0.1,0.4-0.2
	c0.2-0.1,0.3-0.3,0.5-0.5c0.2-0.2,0.3-0.4,0.4-0.6c0.1-0.2,0.2-0.4,0.2-0.5c0-0.2-0.1-0.3-0.3-0.3c-0.1,0-0.3,0.1-0.4,0.2
	c-0.2,0.1-0.3,0.3-0.5,0.4c-0.2,0.1-0.3,0.3-0.4,0.5c-0.1,0.2-0.1,0.3-0.1,0.5C80.3,14.9,80.4,15,80.6,15z M94.3,32.6
	c0,0.2,0.1,0.4,0.2,0.6c0.1,0.1,0.2,0.3,0.3,0.4c0.1,0.1,0.3,0.2,0.5,0.2c-0.2,0.4-0.3,0.7-0.5,0.8c-0.1,0.1-0.2,0.1-0.2,0.2
	c-0.2,0.1-0.5,0.1-0.9,0.1s-0.8-0.2-1.2-0.5c-0.1-0.1-0.3-0.4-0.4-0.6c-0.1-0.2-0.2-0.5-0.3-0.9c-0.1-0.4-0.1-1-0.2-1.6
	c-0.3,0.9-0.7,1.5-1.1,2.1c-0.4,0.5-0.7,0.8-1.1,1.1c-0.4,0.3-0.8,0.5-1.3,0.6c-0.6,0.1-1.1-0.1-1.6-0.3c-0.5-0.3-0.9-0.8-1.3-1.4
	c-0.3-0.6-0.6-1.4-0.8-2.3c-0.2-0.9-0.2-1.9-0.2-3c0.1-1.2,0.2-2.2,0.5-3.1c0.3-0.9,0.6-1.7,1-2.4c0.4-0.7,0.8-1.3,1.3-1.8
	c0.4-0.5,0.9-0.9,1.3-1.2c0.4-0.3,0.8-0.6,1.1-0.7c0.3-0.2,0.5-0.3,0.6-0.3c0.2-0.1,0.5-0.1,0.6-0.1c0.2,0,0.3,0.2,0.5,0.4
	c0,0.1,0.1,0.2,0.2,0.3c0,0.1,0.1,0.3,0.2,0.5c0.1,0.2,0.1,0.4,0.2,0.6c-0.5,0.3-1,0.7-1.5,1.1c-0.5,0.4-0.9,0.8-1.3,1.4
	c-0.4,0.5-0.7,1.2-1,2c-0.3,0.8-0.5,1.7-0.7,2.8c-0.2,1.4-0.2,2.5,0.2,3.4c0.4,0.9,0.8,1.2,1.4,1.1c0.4-0.1,0.7-0.4,1-0.8
	c0.3-0.3,0.6-0.9,0.9-1.5c0.3-0.7,0.6-1.6,0.9-2.8c0.1-1.7,0.2-3.1,0.3-4c0.1-1,0.2-1.8,0.2-2.3c0.1-0.6,0.2-1,0.2-1.2
	c0.1-0.1,0.2-0.3,0.4-0.4c0.2-0.1,0.4-0.3,0.7-0.3c0.2-0.1,0.5-0.1,0.7-0.1c0.2,0,0.3,0,0.4,0c0,0,0.1,0.4,0.1,1.1
	c0,0.7,0,1.5-0.1,2.5c0,1-0.1,2.1-0.1,3.3c0,1.2-0.1,2.3-0.1,3.3c0,1.1,0,2-0.1,2.8C94.3,31.9,94.3,32.4,94.3,32.6z"/>
</svg>
